<svg xmlns:dc="http://purl.org/dc/elements/1.1/" xmlns:cc="http://creativecommons.org/ns#" xmlns:rdf="http://www.w3.org/1999/02/22-rdf-syntax-ns#" xmlns:svg="http://www.w3.org/2000/svg" xmlns="http://www.w3.org/2000/svg" viewBox="0 0 128 128" fill="none"><metadata><rdf:RDF><cc:Work><dc:format>image/svg+xml</dc:format><dc:type rdf:resource="http://purl.org/dc/dcmitype/StillImage"/><dc:title>Croodles - Doodle your face</dc:title><dc:creator><cc:Agent><dc:title>vijay verma</dc:title></cc:Agent></dc:creator><dc:source>https://www.figma.com/community/file/966199982810283152</dc:source><cc:license rdf:resource="https://creativecommons.org/licenses/by/4.0/"/></cc:Work><cc:License rdf:about="https://creativecommons.org/licenses/by/4.0/"><cc:permits rdf:resource="https://creativecommons.org/ns#Reproduction"/><cc:permits rdf:resource="https://creativecommons.org/ns#Distribution"/><cc:permits rdf:resource="https://creativecommons.org/ns#DerivativeWorks"/><cc:requires rdf:resource="https://creativecommons.org/ns#Notice"/><cc:requires rdf:resource="https://creativecommons.org/ns#Attribution"/></cc:License></rdf:RDF></metadata><mask id="avatarsRadiusMask"><rect width="128" height="128" rx="0" ry="0" x="0" y="0" fill="#fff"/></mask><g mask="url(#avatarsRadiusMask)"><g transform="translate(7 4)"><g stroke-width="3" stroke-linecap="round" stroke-linejoin="round"><path d="M35.343 28.88c-2.382.126-7.346 1.43-8.148 5.64-1.003 5.265 2.131 7.396 3.26 7.897 1.127.502 8.272 1.88 9.149-3.008.877-4.888-1.504-8.273-2.883-8.9-1.378-.626-5.64 1.63-6.267 4.012-.627 2.381-2.632 3.384 0 4.888s4.512 3.51 6.267.501c1.755-3.008 1.379-6.643 0-6.893-1.378-.251-4.512.626-4.512 2.506s.376 4.889 1.378 3.886c.803-.802 1.505-2.925 1.755-3.886M84.526 26.953c-2.382.126-7.345 1.43-8.147 5.64-1.003 5.265 2.13 7.396 3.259 7.897 1.128.502 8.272 1.88 9.15-3.008.877-4.888-1.505-8.273-2.883-8.9-1.379-.626-5.64 1.63-6.267 4.012-.627 2.381-2.632 3.384 0 4.888s4.512 3.51 6.267.501c1.754-3.008 1.378-6.643 0-6.893-1.379-.251-4.513.626-4.513 2.506s.376 4.889 1.38 3.886c.801-.802 1.503-2.925 1.754-3.886" stroke="#000"/><path d="M85.38 37.335s0 0 0 0M32.167 34.618c-.39.078-1.209.178-.936.859.273.68 1.327.529 1.58 0 .254-.529-.253-1.717-.253-1.717M81.35 32.691c-.39.078-1.208.178-.936.859.273.68 1.327.529 1.58 0 .254-.529-.253-1.717-.253-1.717" stroke="#fff"/><path d="M27.505 21.785c1.071-1.26 3.781-3.403 6.05-1.89M77.934 17.968c1.071-1.261 4.276-1.32 4.806 0" stroke="#000"/></g></g><g transform="translate(47 46)"><path d="M24.26 5c-.79 5.338-1.113 16.334.387 22.334 3.517 14.067-1.546 17.47-3.286 17.47-5.263 0-6.502-4.699-7.71-17.991-1.5-16.5-1.542-16.351-3.651-20.974" stroke="#000" stroke-width="3" stroke-linecap="round" stroke-linejoin="round"/></g><g transform="translate(30 93)"><g stroke="#000" stroke-width="3" stroke-linecap="round" stroke-linejoin="round"><path d="M13.609 13.778c4.708 4.08 13.46 6.474 22.473 5.468 10.228-1.142 16.289-6.566 18.855-10.7M10 16.544c1.58-1.009 4.81-3.742 5.084-6.61M53.135 6c1.006 1.582 3.735 4.815 6.602 5.093"/></g></g></g></svg>