<svg width="180" height="46" viewBox="0 0 180 46" fill="none" class="mx-auto mt-4"
  xmlns="http://www.w3.org/2000/svg">
  <path d="M12.4375 22.6875C12.4375 22.0833 12.3958 21.6458 12.3125 21.375C12.2292 21.1042 12.1875 20.8542 12.1875 20.625C12.1875 20.3125 12.3438 20.0625 12.6562 19.875C12.9896 19.6667 13.3854 19.5625 13.8438 19.5625C14.9062 19.5625 15.75 19.8438 16.375 20.4062C17 20.9479 17.3125 21.6042 17.3125 22.375V37.0312C17.3333 37.6979 17.3854 38.3125 17.4688 38.875C17.5729 39.4375 17.7396 39.9167 17.9688 40.3125C18.1979 40.7083 18.5104 41.0208 18.9062 41.25C19.3021 41.4583 19.8125 41.5625 20.4375 41.5625C21.0417 41.5625 21.5417 41.4479 21.9375 41.2188C22.3542 40.9688 22.6875 40.6354 22.9375 40.2188C23.1875 39.8021 23.3646 39.3229 23.4688 38.7812C23.5729 38.2188 23.625 37.6354 23.625 37.0312V22.6875C23.625 22.0833 23.5833 21.6458 23.5 21.375C23.4167 21.1042 23.375 20.8542 23.375 20.625C23.375 20.3125 23.5417 20.0625 23.875 19.875C24.2083 19.6667 24.6042 19.5625 25.0625 19.5625C26.125 19.5625 26.9583 19.8438 27.5625 20.4062C28.1875 20.9479 28.5 21.6042 28.5 22.375V37.0312C28.5 38.0312 28.3958 39.0521 28.1875 40.0938C28 41.1146 27.625 42.0521 27.0625 42.9062C26.5 43.7396 25.7083 44.4271 24.6875 44.9688C23.6667 45.5104 22.3333 45.7812 20.6875 45.7812C20 45.7812 19.3542 45.6979 18.75 45.5312C18.1458 45.3646 17.5938 45.1354 17.0938 44.8438C16.5938 44.5729 16.1562 44.2604 15.7812 43.9062C15.4062 43.5312 15.1042 43.1354 14.875 42.7188C14.6667 43.1354 14.3542 43.5312 13.9375 43.9062C13.5417 44.2604 13.0833 44.5729 12.5625 44.8438C12.0417 45.1354 11.4792 45.3646 10.875 45.5312C10.2708 45.6979 9.66667 45.7812 9.0625 45.7812C7.875 45.7812 6.85417 45.6458 6 45.375C5.16667 45.1042 4.45833 44.7292 3.875 44.25C3.29167 43.7917 2.82292 43.2604 2.46875 42.6562C2.13542 42.0521 1.875 41.4271 1.6875 40.7812C1.5 40.1354 1.375 39.4792 1.3125 38.8125C1.27083 38.1458 1.25 37.5312 1.25 36.9688V22.6875C1.25 22.0833 1.19792 21.6458 1.09375 21.375C1.01042 21.1042 0.96875 20.8542 0.96875 20.625C0.96875 20.3125 1.13542 20.0625 1.46875 19.875C1.80208 19.6667 2.19792 19.5625 2.65625 19.5625C3.71875 19.5625 4.55208 19.8438 5.15625 20.4062C5.78125 20.9479 6.09375 21.6042 6.09375 22.375V37.0312C6.09375 37.5938 6.125 38.1562 6.1875 38.7188C6.27083 39.2604 6.41667 39.7396 6.625 40.1562C6.85417 40.5729 7.17708 40.9167 7.59375 41.1875C8.01042 41.4375 8.5625 41.5625 9.25 41.5625C9.85417 41.5625 10.3542 41.4479 10.75 41.2188C11.1667 40.9688 11.5 40.6354 11.75 40.2188C12 39.8021 12.1771 39.3229 12.2812 38.7812C12.3854 38.2188 12.4375 37.6354 12.4375 37.0312V22.6875ZM47.8438 25.375C47.8438 26.5625 47.6354 27.7812 47.2188 29.0312C46.8229 30.2812 46.2188 31.4688 45.4062 32.5938C44.6146 33.6979 43.625 34.6979 42.4375 35.5938C41.2708 36.4688 39.9167 37.1354 38.375 37.5938C38.5833 38.1354 38.8542 38.6562 39.1875 39.1562C39.5417 39.6354 39.9583 40.0521 40.4375 40.4062C40.9167 40.7604 41.4688 41.0417 42.0938 41.25C42.7396 41.4583 43.4792 41.5625 44.3125 41.5625C45.5625 41.5625 46.6354 41.3333 47.5312 40.875C48.4271 40.3958 49.1771 39.7708 49.7812 39C50.4062 38.2292 50.9062 37.3646 51.2812 36.4062C51.6562 35.4479 51.9375 34.4792 52.125 33.5C52.2708 32.7917 52.5625 32.3229 53 32.0938C53.4583 31.8438 53.9167 31.7812 54.375 31.9062C54.8542 32.0312 55.2604 32.3021 55.5938 32.7188C55.9479 33.1146 56.0938 33.5938 56.0312 34.1562C55.9479 34.8021 55.8021 35.5417 55.5938 36.375C55.4062 37.2083 55.1146 38.0521 54.7188 38.9062C54.3229 39.7604 53.8125 40.6042 53.1875 41.4375C52.5833 42.25 51.8333 42.9792 50.9375 43.625C50.0417 44.2708 48.9896 44.7917 47.7812 45.1875C46.5729 45.5833 45.1875 45.7812 43.625 45.7812C42.1667 45.7812 40.75 45.4896 39.375 44.9062C38.0208 44.3438 36.8125 43.5312 35.75 42.4688C34.7083 41.3854 33.8646 40.0625 33.2188 38.5C32.5938 36.9167 32.2812 35.125 32.2812 33.125C32.2812 31.1042 32.5625 29.2292 33.125 27.5C33.6875 25.75 34.4271 24.2396 35.3438 22.9688C36.2604 21.6979 37.3021 20.7083 38.4688 20C39.6354 19.2708 40.8333 18.9062 42.0625 18.9062C42.9583 18.9062 43.7604 19.0625 44.4688 19.375C45.1979 19.6875 45.8125 20.1354 46.3125 20.7188C46.8125 21.2812 47.1875 21.9583 47.4375 22.75C47.7083 23.5417 47.8438 24.4167 47.8438 25.375ZM37.5312 32.9375C37.5312 33.125 37.5417 33.3125 37.5625 33.5C37.5833 33.6875 37.5938 33.8854 37.5938 34.0938C38.3854 33.7188 39.1042 33.2396 39.75 32.6562C40.3958 32.0729 40.9479 31.4062 41.4062 30.6562C41.8646 29.9062 42.2188 29.0938 42.4688 28.2188C42.7188 27.3229 42.8438 26.3958 42.8438 25.4375C42.8438 24.7292 42.7188 24.1771 42.4688 23.7812C42.2396 23.3854 41.9167 23.1875 41.5 23.1875C40.9792 23.1875 40.5104 23.3646 40.0938 23.7188C39.6979 24.0729 39.3438 24.5417 39.0312 25.125C38.7396 25.6875 38.4896 26.3333 38.2812 27.0625C38.0938 27.7708 37.9375 28.4896 37.8125 29.2188C37.6875 29.9479 37.6042 30.6458 37.5625 31.3125C37.5208 31.9583 37.5104 32.5 37.5312 32.9375ZM59.0938 27.6875C59.0938 26.3958 59.2292 25.2812 59.5 24.3438C59.7917 23.3854 60.1875 22.6042 60.6875 22C61.1875 21.375 61.7604 20.9167 62.4062 20.625C63.0729 20.3333 63.7812 20.1875 64.5312 20.1875C65.3854 20.1875 66.2188 20.3958 67.0312 20.8125C67.8438 21.2292 68.5625 21.8646 69.1875 22.7188C69.8333 23.5729 70.3438 24.6562 70.7188 25.9688C71.1146 27.2812 71.3125 28.8333 71.3125 30.625C71.3125 31.875 71.2292 33.125 71.0625 34.375C70.9167 35.6042 70.6771 36.7812 70.3438 37.9062C70.5729 37.9896 70.7917 38.0417 71 38.0625C71.2292 38.0625 71.4583 38.0625 71.6875 38.0625C72.375 38.0625 72.9792 37.9375 73.5 37.6875C74.0417 37.4375 74.5 37.1042 74.875 36.6875C75.2708 36.2708 75.5833 35.7812 75.8125 35.2188C76.0417 34.6562 76.2083 34.0625 76.3125 33.4375C76.3542 33.1875 76.4896 32.9792 76.7188 32.8125C76.9688 32.6458 77.25 32.5312 77.5625 32.4688C77.875 32.4062 78.1979 32.4062 78.5312 32.4688C78.8854 32.5312 79.1875 32.6771 79.4375 32.9062C79.6875 33.1146 79.8646 33.4167 79.9688 33.8125C80.0938 34.1875 80.0938 34.6771 79.9688 35.2812C79.7812 36.1562 79.4688 36.9792 79.0312 37.75C78.6146 38.5 78.0833 39.1667 77.4375 39.75C76.7917 40.3333 76.0312 40.7917 75.1562 41.125C74.2812 41.4583 73.3021 41.625 72.2188 41.625C71.6354 41.625 71.0729 41.5938 70.5312 41.5312C69.9896 41.4688 69.4583 41.3542 68.9375 41.1875C68.1458 42.5625 67.1146 43.6667 65.8438 44.5C64.5729 45.3542 63 45.7812 61.125 45.7812C59.6458 45.7812 58.3438 45.5208 57.2188 45C56.1146 44.4792 55.1771 43.75 54.4062 42.8125C53.6562 41.8542 53.0833 40.7188 52.6875 39.4062C52.3125 38.0938 52.125 36.6562 52.125 35.0938V4.5625C52.125 4.10417 52.0833 3.73958 52 3.46875C51.9375 3.19792 51.8646 2.98958 51.7812 2.84375C51.7188 2.67708 51.6458 2.55208 51.5625 2.46875C51.5 2.36458 51.4688 2.26042 51.4688 2.15625C51.4688 2.03125 51.5312 1.92708 51.6562 1.84375C51.7812 1.76042 51.9479 1.6875 52.1562 1.625C52.3646 1.5625 52.5833 1.52083 52.8125 1.5C53.0625 1.45833 53.3021 1.4375 53.5312 1.4375C54.5938 1.4375 55.4271 1.71875 56.0312 2.28125C56.6562 2.82292 56.9688 3.47917 56.9688 4.25V34.2188C56.9688 35.2812 57.0625 36.2604 57.25 37.1562C57.4375 38.0521 57.7188 38.8333 58.0938 39.5C58.4688 40.1458 58.9375 40.6562 59.5 41.0312C60.0833 41.3854 60.7604 41.5625 61.5312 41.5625C62.3229 41.5625 63 41.3646 63.5625 40.9688C64.125 40.5521 64.5938 40 64.9688 39.3125C64.0521 38.6667 63.2292 37.9167 62.5 37.0625C61.7917 36.1875 61.1771 35.25 60.6562 34.25C60.1562 33.2292 59.7708 32.1667 59.5 31.0625C59.2292 29.9375 59.0938 28.8125 59.0938 27.6875ZM63.0625 27.4375C63.0625 28.9792 63.3333 30.4375 63.875 31.8125C64.4375 33.1875 65.1875 34.375 66.125 35.375C66.25 34.625 66.3333 33.8854 66.375 33.1562C66.4167 32.4062 66.4375 31.7292 66.4375 31.125C66.4375 28.9792 66.2083 27.3229 65.75 26.1562C65.3125 24.9896 64.8021 24.4062 64.2188 24.4062C63.8021 24.4062 63.5 24.6875 63.3125 25.25C63.1458 25.7917 63.0625 26.5208 63.0625 27.4375ZM81.1562 25.0625C81.3854 24.625 81.6042 24.0417 81.8125 23.3125C82.0417 22.5625 82.25 21.7396 82.4375 20.8438C82.6458 19.9479 82.8333 19.0104 83 18.0312C83.1667 17.0521 83.3125 16.0938 83.4375 15.1562C83.5625 14.2188 83.6562 13.3438 83.7188 12.5312C83.8021 11.6979 83.8438 10.9896 83.8438 10.4062C83.8438 8.28125 83.6875 6.72917 83.375 5.75C83.0625 4.75 82.6458 4.25 82.125 4.25C81.9583 4.25 81.8125 4.33333 81.6875 4.5C81.5625 4.66667 81.4583 4.88542 81.375 5.15625C81.2917 5.40625 81.2292 5.6875 81.1875 6C81.1667 6.29167 81.1562 6.5625 81.1562 6.8125V25.0625ZM90.25 34.7188C90.375 34.0938 90.5625 33.6458 90.8125 33.375C91.0833 33.0833 91.3646 32.9271 91.6562 32.9062C91.9688 32.8646 92.2812 32.9375 92.5938 33.125C92.9062 33.2917 93.1771 33.5208 93.4062 33.8125C93.6354 34.1042 93.8021 34.4375 93.9062 34.8125C94.0312 35.1667 94.0521 35.5208 93.9688 35.875C93.6771 36.7292 93.2604 37.7292 92.7188 38.875C92.1771 40.0208 91.4896 41.1042 90.6562 42.125C89.8229 43.1458 88.8438 44.0104 87.7188 44.7188C86.5938 45.4271 85.3021 45.7812 83.8438 45.7812C82.6146 45.7812 81.5312 45.5729 80.5938 45.1562C79.6562 44.7604 78.8646 44.1979 78.2188 43.4688C77.5938 42.7188 77.1146 41.8333 76.7812 40.8125C76.4688 39.7708 76.3125 38.6146 76.3125 37.3438V8.21875C76.3125 7.03125 76.4583 5.9375 76.75 4.9375C77.0625 3.91667 77.4792 3.05208 78 2.34375C78.5417 1.61458 79.1667 1.05208 79.875 0.65625C80.5833 0.239583 81.3333 0.03125 82.125 0.03125C83.0625 0.03125 83.8542 0.208333 84.5 0.5625C85.1458 0.895833 85.6771 1.34375 86.0938 1.90625C86.5104 2.46875 86.8333 3.11458 87.0625 3.84375C87.3125 4.57292 87.4896 5.32292 87.5938 6.09375C87.6979 6.84375 87.7604 7.59375 87.7812 8.34375C87.8021 9.07292 87.8125 9.73958 87.8125 10.3438C87.8125 11.9062 87.6667 13.5521 87.375 15.2812C87.0833 16.9896 86.7083 18.6771 86.25 20.3438C85.8125 22.0104 85.3229 23.6146 84.7812 25.1562C84.2604 26.6771 83.75 28.0312 83.25 29.2188C82.7708 30.4062 82.3333 31.375 81.9375 32.125C81.5625 32.875 81.3021 33.3125 81.1562 33.4375V37.1562C81.1562 38.4479 81.4271 39.5104 81.9688 40.3438C82.5104 41.1562 83.375 41.5625 84.5625 41.5625C85.2917 41.5625 85.9688 41.3438 86.5938 40.9062C87.2396 40.4479 87.8021 39.8854 88.2812 39.2188C88.7812 38.5312 89.1979 37.7917 89.5312 37C89.8646 36.1875 90.1042 35.4271 90.25 34.7188ZM105.156 25.375C105.156 26.5625 104.948 27.7812 104.531 29.0312C104.135 30.2812 103.531 31.4688 102.719 32.5938C101.927 33.6979 100.938 34.6979 99.75 35.5938C98.5833 36.4688 97.2292 37.1354 95.6875 37.5938C95.8958 38.1354 96.1667 38.6562 96.5 39.1562C96.8542 39.6354 97.2708 40.0521 97.75 40.4062C98.2292 40.7604 98.7812 41.0417 99.4062 41.25C100.052 41.4583 100.792 41.5625 101.625 41.5625C102.875 41.5625 103.948 41.3333 104.844 40.875C105.74 40.3958 106.49 39.7708 107.094 39C107.719 38.2292 108.219 37.3646 108.594 36.4062C108.969 35.4479 109.25 34.4792 109.438 33.5C109.583 32.7917 109.875 32.3229 110.312 32.0938C110.771 31.8438 111.229 31.7812 111.688 31.9062C112.167 32.0312 112.573 32.3021 112.906 32.7188C113.26 33.1146 113.406 33.5938 113.344 34.1562C113.26 34.8021 113.115 35.5417 112.906 36.375C112.719 37.2083 112.427 38.0521 112.031 38.9062C111.635 39.7604 111.125 40.6042 110.5 41.4375C109.896 42.25 109.146 42.9792 108.25 43.625C107.354 44.2708 106.302 44.7917 105.094 45.1875C103.885 45.5833 102.5 45.7812 100.938 45.7812C99.4792 45.7812 98.0625 45.4896 96.6875 44.9062C95.3333 44.3438 94.125 43.5312 93.0625 42.4688C92.0208 41.3854 91.1771 40.0625 90.5312 38.5C89.9062 36.9167 89.5938 35.125 89.5938 33.125C89.5938 31.1042 89.875 29.2292 90.4375 27.5C91 25.75 91.7396 24.2396 92.6562 22.9688C93.5729 21.6979 94.6146 20.7083 95.7812 20C96.9479 19.2708 98.1458 18.9062 99.375 18.9062C100.271 18.9062 101.073 19.0625 101.781 19.375C102.51 19.6875 103.125 20.1354 103.625 20.7188C104.125 21.2812 104.5 21.9583 104.75 22.75C105.021 23.5417 105.156 24.4167 105.156 25.375ZM94.8438 32.9375C94.8438 33.125 94.8542 33.3125 94.875 33.5C94.8958 33.6875 94.9062 33.8854 94.9062 34.0938C95.6979 33.7188 96.4167 33.2396 97.0625 32.6562C97.7083 32.0729 98.2604 31.4062 98.7188 30.6562C99.1771 29.9062 99.5312 29.0938 99.7812 28.2188C100.031 27.3229 100.156 26.3958 100.156 25.4375C100.156 24.7292 100.031 24.1771 99.7812 23.7812C99.5521 23.3854 99.2292 23.1875 98.8125 23.1875C98.2917 23.1875 97.8229 23.3646 97.4062 23.7188C97.0104 24.0729 96.6562 24.5417 96.3438 25.125C96.0521 25.6875 95.8021 26.3333 95.5938 27.0625C95.4062 27.7708 95.25 28.4896 95.125 29.2188C95 29.9479 94.9167 30.6458 94.875 31.3125C94.8333 31.9583 94.8229 32.5 94.8438 32.9375ZM109.438 22.6875C109.438 22.0833 109.385 21.6458 109.281 21.375C109.198 21.1042 109.156 20.8542 109.156 20.625C109.156 20.3125 109.323 20.0625 109.656 19.875C109.99 19.6667 110.385 19.5625 110.844 19.5625C111.906 19.5625 112.74 19.8438 113.344 20.4062C113.969 20.9479 114.281 21.6042 114.281 22.375V25.25C114.719 24.3542 115.188 23.5208 115.688 22.75C116.208 21.9792 116.76 21.3125 117.344 20.75C117.948 20.1667 118.583 19.7188 119.25 19.4062C119.938 19.0729 120.677 18.9062 121.469 18.9062C122.531 18.9062 123.406 19.1042 124.094 19.5C124.781 19.8958 125.323 20.4062 125.719 21.0312C126.115 21.6562 126.385 22.3542 126.531 23.125C126.698 23.8958 126.781 24.6458 126.781 25.375V38.625C126.781 38.7708 126.792 39.0104 126.812 39.3438C126.833 39.6562 126.896 39.9792 127 40.3125C127.104 40.6458 127.26 40.9375 127.469 41.1875C127.698 41.4375 128.021 41.5625 128.438 41.5625C129.083 41.5625 129.635 41.3333 130.094 40.875C130.573 40.4167 130.979 39.8438 131.312 39.1562C131.667 38.4688 131.948 37.7292 132.156 36.9375C132.385 36.125 132.573 35.3646 132.719 34.6562C132.844 33.9896 133.052 33.5104 133.344 33.2188C133.635 32.9062 133.938 32.75 134.25 32.75C134.5 32.75 134.76 32.8333 135.031 33C135.302 33.1458 135.542 33.3438 135.75 33.5938C135.979 33.8438 136.156 34.125 136.281 34.4375C136.427 34.75 136.5 35.0625 136.5 35.375C136.5 35.4167 136.5 35.4688 136.5 35.5312C136.5 35.5938 136.479 35.6875 136.438 35.8125C136.167 36.875 135.792 37.9896 135.312 39.1562C134.854 40.3229 134.25 41.3958 133.5 42.375C132.771 43.3542 131.896 44.1667 130.875 44.8125C129.854 45.4583 128.656 45.7812 127.281 45.7812C126.427 45.7812 125.667 45.6146 125 45.2812C124.354 44.9688 123.792 44.5417 123.312 44C122.854 43.4583 122.5 42.8229 122.25 42.0938C122.021 41.3646 121.906 40.5938 121.906 39.7812V26.7812C121.906 26.2812 121.896 25.8125 121.875 25.375C121.854 24.9375 121.792 24.5521 121.688 24.2188C121.604 23.8854 121.469 23.625 121.281 23.4375C121.115 23.2292 120.875 23.125 120.562 23.125C120.104 23.125 119.542 23.4375 118.875 24.0625C118.208 24.6875 117.552 25.5 116.906 26.5C116.26 27.5 115.688 28.6354 115.188 29.9062C114.708 31.1562 114.406 32.4167 114.281 33.6875V43.0312C114.281 43.3438 114.271 43.6667 114.25 44C114.25 44.3125 114.188 44.5938 114.062 44.8438C113.958 45.1146 113.781 45.3333 113.531 45.5C113.302 45.6875 112.958 45.7812 112.5 45.7812C112.188 45.7812 111.844 45.7396 111.469 45.6562C111.115 45.5938 110.781 45.4583 110.469 45.25C110.177 45.0625 109.927 44.7812 109.719 44.4062C109.531 44.0521 109.438 43.5729 109.438 42.9688V22.6875ZM139.719 45.7812C138.469 45.7812 137.333 45.5625 136.312 45.125C135.292 44.6875 134.417 44.0417 133.688 43.1875C132.979 42.3125 132.427 41.2396 132.031 39.9688C131.656 38.6771 131.469 37.1875 131.469 35.5C131.469 33.0417 131.812 30.8542 132.5 28.9375C133.188 27 134.125 25.3438 135.312 23.9688C136.5 22.5729 137.875 21.4688 139.438 20.6562C141 19.8229 142.656 19.2812 144.406 19.0312V4.5625C144.406 4.10417 144.365 3.73958 144.281 3.46875C144.219 3.19792 144.146 2.98958 144.062 2.84375C144 2.67708 143.927 2.55208 143.844 2.46875C143.781 2.36458 143.75 2.26042 143.75 2.15625C143.75 2.03125 143.812 1.92708 143.938 1.84375C144.062 1.76042 144.229 1.6875 144.438 1.625C144.646 1.5625 144.865 1.52083 145.094 1.5C145.344 1.45833 145.583 1.4375 145.812 1.4375C146.875 1.4375 147.708 1.71875 148.312 2.28125C148.938 2.82292 149.25 3.47917 149.25 4.25V38.625C149.25 38.9792 149.292 39.3333 149.375 39.6875C149.458 40.0208 149.583 40.3333 149.75 40.625C149.938 40.8958 150.167 41.125 150.438 41.3125C150.729 41.4792 151.062 41.5625 151.438 41.5625C152.083 41.5625 152.635 41.3333 153.094 40.875C153.573 40.4167 153.979 39.8438 154.312 39.1562C154.667 38.4688 154.948 37.7292 155.156 36.9375C155.385 36.125 155.573 35.3646 155.719 34.6562C155.844 33.9896 156.052 33.5104 156.344 33.2188C156.635 32.9062 156.938 32.75 157.25 32.75C157.5 32.75 157.76 32.8333 158.031 33C158.302 33.1458 158.542 33.3438 158.75 33.5938C158.979 33.8438 159.156 34.125 159.281 34.4375C159.427 34.75 159.5 35.0625 159.5 35.375C159.5 35.4167 159.5 35.4688 159.5 35.5312C159.5 35.5938 159.479 35.6875 159.438 35.8125C159.167 36.875 158.792 37.9896 158.312 39.1562C157.854 40.3229 157.25 41.3958 156.5 42.375C155.771 43.3542 154.896 44.1667 153.875 44.8125C152.854 45.4583 151.656 45.7812 150.281 45.7812C149.177 45.7812 148.208 45.5521 147.375 45.0938C146.542 44.6354 145.885 44.0312 145.406 43.2812C144.698 44.0104 143.875 44.6042 142.938 45.0625C142.021 45.5417 140.948 45.7812 139.719 45.7812ZM140.688 41.5625C141.521 41.5625 142.24 41.3229 142.844 40.8438C143.469 40.3646 143.99 39.7708 144.406 39.0625V23.25C143.365 23.4375 142.354 23.7917 141.375 24.3125C140.417 24.8125 139.562 25.5208 138.812 26.4375C138.083 27.3542 137.5 28.5208 137.062 29.9375C136.625 31.3333 136.406 33.0312 136.406 35.0312C136.406 36.1979 136.521 37.1979 136.75 38.0312C137 38.8438 137.312 39.5104 137.688 40.0312C138.083 40.5521 138.542 40.9375 139.062 41.1875C139.583 41.4375 140.125 41.5625 140.688 41.5625Z" fill="#333333"></path>
</svg>